<?xml version="1.0" encoding="utf-8"?>
<!-- Generator: Adobe Illustrator 27.2.0, SVG Export Plug-In . SVG Version: 6.00 Build 0)  -->
<svg version="1.1" id="Layer_1" xmlns="http://www.w3.org/2000/svg" xmlns:xlink="http://www.w3.org/1999/xlink" x="0px" y="0px"
	 viewBox="0 0 377.1 480.1" style="enable-background:new 0 0 377.1 480.1;" xml:space="preserve">
<style type="text/css">
	.st0{fill:#B68C37;}
	.st1{fill:url(#SVGID_1_);}
</style>
<g>
	<path class="st0" d="M40.8,480.1c-13.1,0-24-2.6-32.8-7.9v-12c9.4,6.6,20.7,9.8,33.9,9.8c5.5,0,9.7-0.5,12.5-1.6s4.3-2.6,4.3-4.5
		c0-1.3-0.7-2.4-2-3.2c-1.3-0.8-3.7-1.3-7.1-1.6l-21.8-1.8c-6.5-0.5-11.3-2-14.6-4.4c-3.2-2.4-4.9-5.6-4.9-9.7
		c0-5.3,2.5-9.4,7.5-12.2c5-2.8,12.2-4.2,21.7-4.2c5.8,0,11.3,0.5,16.5,1.5c5.2,1,9.5,2.3,12.8,4v11.4c-3.5-2.2-7.9-4-13.3-5.3
		s-11.1-2-17.3-2c-10.6,0-15.9,2-15.9,6c0,1.2,0.6,2.2,1.9,2.9s3.5,1.2,6.6,1.5l23,2c12.6,1.1,18.9,5.8,18.9,14.2
		c0,5.5-2.6,9.7-7.6,12.7C58,478.7,50.6,480.1,40.8,480.1z"/>
	<path class="st0" d="M79.4,428.1h63.2v10.2H117l0.1,40.7H105v-40.7H79.4V428.1z"/>
	<path class="st0" d="M141.3,479l29.2-50.9h15.8l28.8,50.9h-13.2l-5.8-10.3h-36l-5.8,10.3H141.3z M165.6,459h25.1l-12.5-22.4
		L165.6,459z"/>
	<path class="st0" d="M266.8,428.1c5.4,0,9.7,1.4,13,4.2c3.2,2.8,4.8,6.4,4.8,10.8c0,3.8-1.1,7-3.3,9.6c-2.2,2.6-5.2,4.4-9.1,5.3
		c2.2,0.9,4.6,2.9,7.1,5.9l7.8,9.3c1.5,1.8,3.5,3.8,5.9,5.9h-15.1l-9.4-10.9c-1.9-2.2-3.2-3.6-3.9-4.2c-2.4-2.2-5.4-3.7-8.9-4.4
		c-2-0.4-4.4-0.6-7.2-0.6h-9.6V479h-12.1v-50.9H266.8z M238.7,449.8h26.5c2.2,0,3.9-0.6,5.2-1.7c1.3-1.1,1.9-2.6,1.9-4.5
		c0-1.8-0.6-3.2-1.9-4.3c-1.3-1.1-3-1.6-5.2-1.6h-26.5V449.8z"/>
	<path class="st0" d="M304.6,479v-50.9h12.1l0.1,20.2l32.2-20.2h18.5l-31.9,20.1l33.5,30.8h-16l-27.2-24.7l-9.1,5.7l0,19H304.6z"/>
	<linearGradient id="SVGID_1_" gradientUnits="userSpaceOnUse" x1="188.5677" y1="398.3951" x2="188.5677" y2="-40.7451">
		<stop  offset="0.253" style="stop-color:#CFAC57"/>
		<stop  offset="0.4015" style="stop-color:#BB8830"/>
		<stop  offset="0.4356" style="stop-color:#AC7B29"/>
		<stop  offset="0.4678" style="stop-color:#A37324"/>
		<stop  offset="0.4942" style="stop-color:#A67827"/>
		<stop  offset="0.5334" style="stop-color:#B48A35"/>
		<stop  offset="0.9318" style="stop-color:#F8F6D6"/>
		<stop  offset="1" style="stop-color:#F8F09D"/>
	</linearGradient>
	<path class="st1" d="M188.6,0C84.4,0,0,84.4,0,188.6s84.4,188.6,188.6,188.6s188.6-84.4,188.6-188.6S292.7,0,188.6,0z M188.6,326.2
		c-76,0-137.6-61.6-137.6-137.6C51,112.6,112.6,51,188.6,51s137.6,61.6,137.6,137.6C326.2,264.6,264.6,326.2,188.6,326.2z"/>
</g>
</svg>
